# xmcd
#
# Track frame offsets:
# 150
# 17464
# 31620
# 49701
# 68792
# 93123
# 111142
# 132349
# 151995
# 166417
# 180458
# 199472
#
# Disc length: 2885 seconds
#
#
# Revision: 2
# Processed by: cddbd v1.5.2PL0 Copyright (c) Steve Scherf et al.
# Submitted via: FreeRIP 2.951 
#
DISCID=900b430c
DTITLE=Lucero - Rebels, Rogues and Sworn Brothers
DYEAR=2006
DGENRE=Rock
TTITLE0=What Else Would You Have Me Be?
TTITLE1=I Don't Wanna Be the One
TTITLE2=San Francisco
TTITLE3=I Can Get Us Out of Here
TTITLE4=Nineteen Seventy Nine
TTITLE5=Cass
TTITLE6=The Mountain
TTITLE7=Sing Me No Hymns
TTITLE8=The Weight of Guilt
TTITLE9=She's Just That Kind of Girl
TTITLE10=On the Way Back Home
TTITLE11=She Wakes When She Dreams
EXTD=
EXTT0=
EXTT1=
EXTT2=
EXTT3=
EXTT4=
EXTT5=
EXTT6=
EXTT7=
EXTT8=
EXTT9=
EXTT10=
EXTT11=
PLAYORDER=
